<?xml version="1.0" standalone="no"?>
<!DOCTYPE svg PUBLIC "-//W3C//DTD SVG 20010904//EN"
 "http://www.w3.org/TR/2001/REC-SVG-20010904/DTD/svg10.dtd">
<svg version="1.0" xmlns="http://www.w3.org/2000/svg"
 width="858.000000pt" height="269.000000pt" viewBox="0 0 858.000000 269.000000"
 preserveAspectRatio="xMidYMid meet">

<g transform="translate(0.000000,269.000000) scale(0.100000,-0.100000)"
fill="#000000" stroke="none">
<path d="M0 1345 l0 -1345 4290 0 4290 0 0 1345 0 1345 -4290 0 -4290 0 0
-1345z m5588 548 c-10 -2 -26 -2 -35 0 -10 3 -2 5 17 5 19 0 27 -2 18 -5z
m152 -33 c8 -5 11 -10 5 -10 -5 0 -17 5 -25 10 -8 5 -10 10 -5 10 6 0 17 -5
25 -10z m-331 -4 c-2 -2 -15 -9 -29 -15 -24 -11 -24 -11 -6 3 16 13 49 24 35
12z m-3094 -33 c45 -116 255 -673 255 -677 0 -4 -33 -6 -72 -6 l-73 0 -85 235
c-47 129 -87 235 -90 235 -3 0 -43 -106 -90 -235 l-85 -235 -72 0 c-40 0 -73
2 -73 5 0 4 213 570 255 678 6 13 19 17 65 17 46 0 59 -4 65 -17z m848 -11
c45 -20 147 -106 147 -123 0 -5 -24 -25 -54 -45 l-54 -35 -26 26 c-62 61 -165
81 -241 46 -141 -65 -169 -260 -51 -358 86 -71 196 -69 277 4 44 40 54 39 121
-18 l33 -27 -40 -42 c-22 -22 -69 -55 -105 -73 -57 -29 -74 -32 -150 -32 -105
0 -175 29 -248 102 -69 69 -94 129 -100 233 -5 106 18 176 83 247 43 49 123
100 179 114 52 14 179 3 229 -19z m447 -121 l5 -144 109 132 c60 73 115 139
123 147 10 10 38 14 99 14 46 0 84 -2 84 -5 0 -3 -94 -117 -210 -253 l-209
-247 -1 -97 0 -98 -70 0 -70 0 0 350 0 351 68 -3 67 -3 5 -144z m948 -3 l3
-148 129 0 129 0 3 148 3 147 70 0 70 0 3 -347 2 -348 -75 0 -75 0 0 130 0
130 -130 0 -130 0 0 -130 0 -130 -70 0 -70 0 0 350 0 351 68 -3 67 -3 3 -147z
m2684 118 c29 -14 64 -35 77 -46 l23 -20 -42 -55 -42 -55 -42 29 c-96 66 -195
58 -196 -15 0 -31 24 -48 125 -88 118 -48 158 -76 184 -128 56 -116 -11 -245
-146 -284 -101 -29 -220 1 -308 78 l-40 35 48 57 48 56 26 -31 c36 -43 93 -69
150 -69 63 0 93 21 93 64 0 41 -16 53 -128 96 -144 55 -197 114 -196 215 1 84
50 147 141 181 58 22 161 12 225 -20z m746 -38 l3 -68 -226 0 -225 0 0 70 0
70 223 -2 222 -3 3 -67z m-6941 37 c58 -26 88 -65 98 -126 8 -44 -8 -107 -35
-142 l-20 -25 35 -36 c41 -43 59 -104 51 -165 -8 -60 -39 -106 -94 -139 -46
-26 -51 -27 -229 -30 l-183 -4 0 346 0 346 163 0 c151 0 166 -2 214 -25z m463
-255 l0 -280 155 0 155 0 0 -65 0 -65 -225 0 -225 0 2 327 3 327 55 18 c30 9
61 17 68 17 9 1 12 -61 12 -279z m5048 264 c133 -55 175 -241 80 -350 -17 -19
-44 -42 -60 -50 l-29 -15 23 -32 c14 -18 55 -76 92 -129 l67 -98 -85 0 -85 0
-80 117 -81 117 0 67 0 66 42 6 c64 9 92 35 96 89 2 33 -2 51 -17 69 -17 21
-29 24 -105 28 l-86 3 0 -281 0 -281 -70 0 -70 0 0 345 0 345 165 0 c127 0
174 -4 203 -16z m-688 -40 c0 -3 -13 4 -30 16 -16 12 -30 24 -30 26 0 3 14 -4
30 -16 17 -12 30 -24 30 -26z m-550 33 c0 -2 -19 -21 -42 -42 l-43 -40 40 43
c36 39 45 47 45 39z m601 -99 c15 -28 5 -21 -21 15 -15 20 -17 27 -6 18 9 -8
22 -23 27 -33z m-713 -43 c-6 -14 -13 -23 -15 -21 -5 5 15 46 22 46 3 0 -1
-11 -7 -25z m750 -30 c-3 -3 -9 2 -12 12 -6 14 -5 15 5 6 7 -7 10 -15 7 -18z
m-328 -15 c0 -5 -25 -10 -55 -10 -30 0 -55 5 -55 10 0 6 25 10 55 10 30 0 55
-4 55 -10z m348 -55 c0 -16 -2 -15 -8 5 -11 34 -11 60 0 35 5 -11 8 -29 8 -40z
m-271 -25 l10 -40 -148 0 -147 0 15 40 16 40 121 0 122 0 11 -40z m2283 -55
l0 -65 -225 0 -225 0 0 65 0 65 225 0 225 0 0 -65z m-2003 -32 c-2 -16 -4 -5
-4 22 0 28 2 40 4 28 2 -13 2 -35 0 -50z m-830 10 c-3 -10 -5 -2 -5 17 0 19 2
27 5 18 2 -10 2 -26 0 -35z m600 -15 c15 -14 23 -33 23 -55 l0 -33 -53 0 c-56
0 -91 21 -85 51 2 11 -13 15 -61 17 -73 3 -100 -3 -84 -19 8 -8 5 -17 -8 -30
-14 -14 -33 -19 -74 -19 l-55 0 0 32 c0 19 9 41 22 55 21 22 27 23 187 23 155
0 166 -1 188 -22z m213 -98 c-6 -23 -13 -40 -15 -38 -2 2 1 23 7 46 6 24 13
41 15 38 2 -2 -1 -23 -7 -46z m-367 13 c-18 -2 -48 -2 -65 0 -18 2 -4 4 32 4
36 0 50 -2 33 -4z m-163 -43 c0 -5 -9 -10 -20 -10 -11 0 -20 5 -20 10 0 6 9
10 20 10 11 0 20 -4 20 -10z m300 0 c0 -5 -9 -10 -20 -10 -11 0 -20 5 -20 10
0 6 9 10 20 10 11 0 20 -4 20 -10z m-530 -35 c0 -5 -5 -3 -10 5 -5 8 -10 20
-10 25 0 6 5 3 10 -5 5 -8 10 -19 10 -25z m-2862 17 c-8 -21 -93 -152 -98
-152 -5 1 -90 133 -98 152 -2 4 42 8 98 8 56 0 100 -4 98 -8z m1615 -71 c31
-44 57 -82 57 -85 0 -3 -35 -6 -78 -6 l-78 0 -62 85 -62 85 83 0 82 0 58 -79z
m1957 19 c-6 -11 -13 -20 -16 -20 -2 0 0 9 6 20 6 11 13 20 16 20 2 0 0 -9 -6
-20z m2070 -45 l0 -65 -225 0 -225 0 0 65 0 65 225 0 225 0 0 -65z m-2739 18
c13 -16 12 -17 -3 -4 -10 7 -18 15 -18 17 0 8 8 3 21 -13z m639 -16 c0 -2 -12
-14 -27 -28 l-28 -24 24 28 c23 25 31 32 31 24z m-530 -84 c0 -8 -38 17 -51
33 -9 11 -2 9 19 -6 17 -13 32 -25 32 -27z m370 -32 c-8 -5 -33 -12 -55 -15
l-40 -6 45 14 c53 17 71 19 50 7z m-273 -7 c-3 -3 -12 -4 -19 -1 -8 3 -5 6 6
6 11 1 17 -2 13 -5z m40 -10 c-3 -3 -12 -4 -19 -1 -8 3 -5 6 6 6 11 1 17 -2
13 -5z m106 -11 c-13 -2 -35 -2 -50 0 -16 2 -5 4 22 4 28 0 40 -2 28 -4z
m-2313 -307 c0 -8 -5 -18 -10 -21 -13 -8 -42 14 -34 26 9 15 44 10 44 -5z
m1888 -3 c-2 -10 -10 -18 -18 -18 -8 0 -16 8 -18 18 -2 12 3 17 18 17 15 0 20
-5 18 -17z m-2098 -68 l0 -65 35 0 c24 0 35 -5 35 -15 0 -12 -13 -15 -55 -15
l-55 0 0 80 c0 73 2 80 20 80 18 0 20 -7 20 -65z m1328 45 c2 -12 -6 -15 -38
-12 -51 5 -58 -23 -7 -33 42 -9 57 -22 57 -49 0 -32 -19 -46 -64 -46 -74 0
-91 33 -18 34 51 1 52 17 0 36 -48 18 -59 41 -32 71 22 25 97 23 102 -1z
m-1118 -80 c0 -53 -2 -60 -20 -60 -18 0 -20 7 -20 60 0 53 2 60 20 60 18 0 20
-7 20 -60z m140 25 c6 -19 15 -35 20 -35 5 0 14 16 20 35 8 23 18 35 30 35 18
0 17 -3 -5 -57 -22 -55 -46 -76 -65 -56 -5 4 -18 32 -29 61 -20 51 -20 52 -2
52 13 0 23 -11 31 -35z m282 18 c10 -9 18 -24 18 -35 0 -15 -8 -18 -47 -18
-50 0 -50 -16 0 -22 39 -4 34 -22 -7 -26 -62 -6 -98 57 -59 100 20 22 70 23
95 1z m198 2 c0 -7 -9 -15 -20 -18 -16 -4 -20 -14 -20 -46 0 -34 -3 -41 -20
-41 -18 0 -20 7 -20 59 l0 60 40 -1 c25 0 40 -5 40 -13z m139 -20 c7 -19 16
-35 20 -35 4 0 13 16 20 35 7 19 19 35 27 35 20 0 18 -11 -17 -90 -31 -69 -59
-93 -88 -75 -17 10 -13 25 7 25 36 0 36 1 -15 128 -3 7 3 12 14 12 13 0 23
-12 32 -35z m579 23 c5 -7 13 -23 16 -35 7 -22 5 -23 -44 -23 -32 0 -49 -4
-45 -10 3 -5 22 -10 41 -10 40 0 43 -23 5 -28 -38 -6 -67 6 -79 33 -13 28 -2
69 20 78 25 10 76 7 86 -5z m192 -3 c0 -5 -9 -16 -20 -23 -14 -8 -20 -23 -20
-47 0 -24 -5 -35 -15 -35 -12 0 -15 13 -15 59 l0 59 35 -1 c19 -1 35 -6 35
-12z m141 -20 c7 -19 16 -35 20 -35 4 0 13 16 20 35 8 22 20 35 31 35 17 0 16
-3 -3 -52 -11 -29 -23 -56 -25 -60 -11 -17 -45 -7 -53 15 -5 12 -16 39 -25 60
-16 35 -15 37 3 37 13 0 24 -11 32 -35z m219 -25 c0 -53 -2 -60 -20 -60 -18 0
-20 7 -20 60 0 53 2 60 20 60 18 0 20 -7 20 -60z m210 50 c20 -13 4 -25 -33
-25 -27 0 -32 -4 -32 -25 0 -21 5 -25 32 -25 37 0 53 -12 33 -25 -42 -27 -110
5 -110 52 0 47 66 76 110 48z m211 0 c11 -6 19 -21 19 -35 0 -23 -4 -25 -47
-25 -50 0 -50 -16 0 -22 39 -4 34 -22 -7 -26 -25 -2 -41 3 -55 17 -25 25 -27
49 -5 79 17 24 61 30 95 12z"/>
<path d="M810 1630 l0 -70 68 0 c91 0 116 14 120 67 4 58 -20 73 -115 73 l-73
0 0 -70z"/>
<path d="M810 1350 l0 -82 89 4 c106 4 131 19 131 78 0 59 -25 74 -131 78
l-89 4 0 -82z"/>
<path d="M5392 1400 c-1 -26 3 -30 27 -30 34 0 44 9 30 27 -9 10 -8 13 0 13 7
0 9 5 6 10 -3 6 -19 10 -34 10 -24 0 -28 -4 -29 -30z"/>
<path d="M5699 1428 c0 -2 -2 -15 -4 -30 -3 -25 0 -28 25 -28 25 0 29 3 28 30
-1 25 -5 30 -25 30 -12 0 -23 -1 -24 -2z"/>
<path d="M3647 683 c-15 -14 -6 -23 24 -23 27 0 30 2 19 15 -13 16 -32 19 -43
8z"/>
<path d="M4560 675 c-11 -13 -8 -15 20 -15 21 0 30 4 28 13 -7 18 -33 20 -48
2z"/>
<path d="M5537 683 c-15 -14 -6 -23 23 -23 32 0 40 14 14 24 -20 8 -29 8 -37
-1z"/>
</g>
</svg>
